# xmcd
#
# Track frame offsets: 
#        150
#        12881
#        24681
#        36270
#        48151
#        60534
#        72263
#        86044
#        100585
#        114851
#        125178
#        136081
#        150028
#        164206
#        174209
#        186410
#        199507
#        211844
#        223282
#        236331
#        247827
#        260046
#
# Disc length: 3639 seconds
#
# Revision: 0
# Processed by: cddbd v1.5.2PL0 Copyright (c) Steve Scherf et al.
# Submitted via: ExactAudioCopy v1.0b3
#
DISCID=2b0e3516
DTITLE=Various Artist - Back in the saddle again CD1
DYEAR=2011
DGENRE=Country
TTITLE0=Hank Williams - I'm so lonesome I could try
TTITLE1=Bob Wills - New San Antoninio Rose
TTITLE2=Patsy Cline - Wlkin' after midnight
TTITLE3=Ernest Tubb - Walking the floor over you
TTITLE4=Johnny Cash - I walk the line
TTITLE5=George Jones - The window up above
TTITLE6=Bill Monroe - Blue moon of Kentucky
TTITLE7=Jeannie C. Riley - Harper valley PTA
TTITLE8=The Carter Family - Can the circle be unbroken
TTITLE9=Dolly Parton - Release me
TTITLE10=Charlie Rich - Who will be the next fool be?
TTITLE11=Lefty Frizzell - Long black veil
TTITLE12=Patsy Montana - I wanna be a cowboy's sweetheart
TTITLE13=Eddy Arnold - I wanna play house with you
TTITLE14=Lester Flatt and Earl Scruggs - Foggy mountain breakdown
TTITLE15=Kenny Rogers - Ruby don't take your love to town
TTITLE16=Hank Thompson - Wild side of life1
TTITLE17=Kitty Wells - It wasn't God who made honky tonk angels
TTITLE18=Carl Perkins - Let the jukebox keep on playing
TTITLE19=Willie Nelson - Night life
TTITLE20=Waylon Jennings - Don't think twice It's all right
TTITLE21=Hank Snow - I'm movin' you
EXTD=
EXTT0=
EXTT1=
EXTT2=
EXTT3=
EXTT4=
EXTT5=
EXTT6=
EXTT7=
EXTT8=
EXTT9=
EXTT10=
EXTT11=
EXTT12=
EXTT13=
EXTT14=
EXTT15=
EXTT16=
EXTT17=
EXTT18=
EXTT19=
EXTT20=
EXTT21=
PLAYORDER=
